<svg xmlns="http://www.w3.org/2000/svg" viewBox="0 0 140.15 111"><g id="Calque_2" data-name="Calque 2"><g id="Calque_1-2" data-name="Calque 1"><path d="M94.29,0s28.27-1,31.2,25.36-6.83,37.05-6.83,37.05S139.14,77,140.12,94.58s-17.07,14.14-17.07,14.14c-7.93-22.89-16.94-29.78-24.37-31.2C85.61,75,72,88.43,62.68,81.61c-3.19-2.33-4.15-5.79-10.33-9.29-4.72-2.68-6.38-1.93-9.3-4.13-2-1.51-4.71-4.49-6.78-17-2.36-14.28-3.45-21.32.36-24.73,3-2.73,9.23-2.87,21.09,2.31C66,5.85,76.74,2,94.29,0Z" fill="#1dd845" opacity="0.29"/><circle cx="90.73" cy="34.71" r="24.95" fill="#fff" stroke="#545454" stroke-miterlimit="10"/><path d="M132.32,109.2a41.59,41.59,0,1,0-83.17,0" fill="#fff" stroke="#545454" stroke-miterlimit="10"/><circle cx="36.49" cy="46.54" r="21.59" fill="#fff" stroke="#545454" stroke-miterlimit="10"/><path d="M.5,111a36,36,0,0,1,51-32.71" fill="#fff" stroke="#545454" stroke-miterlimit="10"/></g></g></svg>