<svg xmlns="http://www.w3.org/2000/svg" viewBox="0 0 138.44 136.87"><g id="Calque_2" data-name="Calque 2"><g id="Calque_1-2" data-name="Calque 1"><g opacity="0.26"><polygon points="105.87 19.02 105.77 56.87 73.19 75.89 40.39 56.87 40.51 19.02 73.08 0 105.87 19.02" fill="#e84256"/><line x1="73.27" y1="47.45" x2="73.29" y2="38.04" fill="#e84256"/><line x1="73.19" y1="75.89" x2="73.25" y2="52.61" fill="#e84256"/><polyline points="105.87 19.02 105.77 56.88 73.19 75.9" fill="#e84256"/><polyline points="73.19 75.9 40.4 56.87 40.51 19.02 73.08 0 105.87 19.02" fill="#e84256"/><line x1="40.51" y1="19.02" x2="73.29" y2="38.04" fill="#e84256"/><line x1="105.87" y1="19.02" x2="73.29" y2="38.04" fill="#e84256"/><polygon points="73.32 75.95 73.2 113.81 40.63 132.83 7.84 113.81 7.94 75.95 40.52 56.94 73.32 75.95" fill="#e84256"/><line x1="40.63" y1="132.83" x2="40.74" y2="94.97" fill="#e84256"/><polyline points="73.32 75.95 73.2 113.81 40.63 132.83" fill="#e84256"/><polyline points="40.63 132.83 7.84 113.81 7.94 75.95 40.52 56.93 73.32 75.95" fill="#e84256"/><line x1="15.76" y1="80.48" x2="40.74" y2="94.97" fill="#e84256"/><line x1="7.94" y1="75.95" x2="13" y2="78.89" fill="#e84256"/><line x1="73.32" y1="75.95" x2="40.74" y2="94.97" fill="#e84256"/><polygon points="138.44 75.95 138.32 113.81 105.74 132.83 72.95 113.81 73.06 75.95 105.64 56.94 138.44 75.95" fill="#e84256"/><line x1="105.75" y1="132.83" x2="105.86" y2="94.97" fill="#e84256"/><line x1="123.27" y1="122.6" x2="105.75" y2="132.83" fill="#e84256"/><polyline points="138.44 75.95 138.33 113.81 125.64 121.22" fill="#e84256"/><polyline points="105.75 132.83 72.95 113.81 73.06 75.95 105.64 56.93 138.44 75.95" fill="#e84256"/><line x1="73.06" y1="75.95" x2="105.86" y2="94.97" fill="#e84256"/><line x1="138.44" y1="75.95" x2="105.86" y2="94.97" fill="#e84256"/><line x1="93.1" y1="82.25" x2="96.73" y2="84.61" fill="#e84256"/><line x1="98.82" y1="80.71" x2="96.58" y2="82.27" fill="#e84256"/><line x1="97.76" y1="77.89" x2="103.12" y2="81.31" fill="#e84256"/><polygon points="98.79 78.54 110.49 70.55 113.66 72.48 102.08 80.64 98.79 78.54" fill="#e84256"/><polygon points="98.79 78.54 105.03 74.28 110.38 75 102.08 80.64 98.79 78.54" fill="#e84256"/><line x1="112.77" y1="70.1" x2="114.19" y2="70.97" fill="#e84256"/><line x1="113.82" y1="70.29" x2="118.24" y2="67.22" fill="#e84256"/><line x1="104.66" y1="77.08" x2="105.97" y2="77.9" fill="#e84256"/><line x1="106.93" y1="75.5" x2="108.23" y2="76.31" fill="#e84256"/><line x1="109.15" y1="73.96" x2="110.44" y2="74.75" fill="#e84256"/><path d="M34,75.55a2.79,2.79,0,0,0-1.31,1.92A4.36,4.36,0,0,1,30.3,77l-.24-.14c-1.25-.72-1.34-1.93-.22-2.7l2.93-2,4.16,2.39A6.24,6.24,0,0,0,34,75.55Z" fill="#e84256"/><path d="M41.63,71.94l-2.81,2-4.64-2.73L37,69.23a4.18,4.18,0,0,1,4.11,0l.23.14C42.57,70,42.69,71.21,41.63,71.94Z" fill="#e84256"/><path d="M38.22,81c-1.94-.11-3.56-1.06-3.92-2.29,0-.12,0-.23-.06-.35-.12-1.4,1.39-2.58,3.47-2.8Z" fill="#e84256"/><path d="M39.38,80.9l-.47-5,0-.46a2.24,2.24,0,0,1,.52,0c1.84.27,3.27,1.31,3.4,2.56C42.92,79.48,41.44,80.68,39.38,80.9Z" fill="#e84256"/><path d="M79.33,15.35l-3.64-2.09c-.36-.21-.38-.55,0-.8l.3-.17a1.42,1.42,0,0,1,1.3,0l3.61,2.09c.36.21.38.54,0,.79l-.29.18A1.41,1.41,0,0,1,79.33,15.35Z" fill="#e84256"/><path d="M78.73,17.59l-7.12,4.23a1.63,1.63,0,0,1-1.49,0l-5.45-3.08c-.42-.24-.43-.63,0-.87l7.26-4.22a3,3,0,0,1,2.22-.17,1,1,0,0,1,.81,0l4,2.3c.22.13.25.34.06.48A.84.84,0,0,1,78.73,17.59Z" fill="#e84256"/><polygon points="72.79 21.08 65.85 17.14 70.61 14.38 77.46 18.3 72.79 21.08" fill="#e84256"/><polygon points="70.61 19.07 69.43 18.4 72.29 16.72 73.45 17.39 70.61 19.07" fill="#e84256"/><polygon points="69.4 17.4 70.53 16.74 73.5 18.42 72.38 19.08 69.4 17.4" fill="#e84256"/><path d="M78.73,17.59l-7.12,4.23a1.63,1.63,0,0,1-1.49,0l-.69-.39a1.63,1.63,0,0,0,1.49,0l7.13-4.23c.58-.35.67-.87.28-1.28.19-.14.17-.35-.06-.49l.68.39c.22.14.25.35.06.49C79.4,16.72,79.31,17.24,78.73,17.59Z" fill="#e84256" opacity="0.31" style="isolation:isolate"/></g><polygon points="97.39 23.95 97.28 61.18 65.08 79.89 32.67 61.18 32.78 23.95 64.98 5.23 97.39 23.95" fill="#fff" stroke="#545454" stroke-miterlimit="10"/><line x1="65.17" y1="51.92" x2="65.19" y2="42.66" fill="none" stroke="#545454" stroke-miterlimit="10"/><line x1="65.08" y1="79.89" x2="65.15" y2="56.99" fill="none" stroke="#545454" stroke-miterlimit="10"/><polyline points="97.39 23.95 97.28 61.19 65.08 79.9" fill="none" stroke="#545454" stroke-miterlimit="10"/><polyline points="65.08 79.9 32.67 61.18 32.78 23.95 64.98 5.23 97.39 23.95" fill="none" stroke="#545454" stroke-miterlimit="10"/><line x1="32.78" y1="23.95" x2="65.19" y2="42.66" fill="none" stroke="#545454" stroke-miterlimit="10"/><line x1="97.39" y1="23.95" x2="65.19" y2="42.66" fill="none" stroke="#545454" stroke-miterlimit="10"/><polygon points="65.22 79.95 65.11 117.19 32.91 135.91 0.5 117.19 0.61 79.95 32.8 61.25 65.22 79.95" fill="#fff" stroke="#545454" stroke-miterlimit="10"/><line x1="32.91" y1="135.91" x2="33.01" y2="98.66" fill="none" stroke="#545454" stroke-miterlimit="10"/><polyline points="65.21 79.95 65.11 117.19 32.91 135.91" fill="none" stroke="#545454" stroke-miterlimit="10"/><polyline points="32.91 135.91 0.5 117.19 0.6 79.95 32.8 61.24 65.21 79.95" fill="none" stroke="#545454" stroke-miterlimit="10"/><line x1="8.33" y1="84.41" x2="33.01" y2="98.66" fill="none" stroke="#545454" stroke-miterlimit="10"/><polyline points="33.01 98.66 33.01 136 65 117.23 65.21 79.95" stroke="#545454" stroke-miterlimit="10" opacity="0.16" style="isolation:isolate"/><line x1="65.21" y1="79.95" x2="33.01" y2="98.66" fill="none" stroke="#545454" stroke-miterlimit="10"/><polygon points="129.56 79.95 129.46 117.19 97.26 135.91 64.86 117.19 64.96 79.95 97.15 61.25 129.56 79.95" fill="#fff" stroke="#545454" stroke-miterlimit="10"/><polyline points="97.28 97.88 97.28 135.22 65.3 116.44 65.09 79.17" stroke="#545454" stroke-miterlimit="10" opacity="0.16" style="isolation:isolate"/><line x1="97.26" y1="135.91" x2="97.36" y2="98.66" fill="none" stroke="#545454" stroke-miterlimit="10"/><line x1="114.57" y1="125.85" x2="97.26" y2="135.91" fill="none" stroke="#545454" stroke-miterlimit="10"/><polyline points="129.56 79.95 129.46 117.19 116.92 124.49" fill="none" stroke="#545454" stroke-miterlimit="10"/><polyline points="97.26 135.91 64.86 117.19 64.96 79.95 97.15 61.24 129.56 79.95" fill="none" stroke="#545454" stroke-miterlimit="10"/><line x1="64.96" y1="79.95" x2="97.36" y2="98.66" fill="none" stroke="#545454" stroke-miterlimit="10"/><line x1="129.56" y1="79.95" x2="97.36" y2="98.66" fill="none" stroke="#545454" stroke-miterlimit="10"/></g></g></svg>