<svg xmlns="http://www.w3.org/2000/svg" xmlns:xlink="http://www.w3.org/1999/xlink" viewBox="0 0 135.1 124.16"><defs><linearGradient id="Dégradé_sans_nom_73" y1="101.31" x2="50.31" y2="101.31" gradientUnits="userSpaceOnUse"><stop offset="0" stop-color="#f0d562"/><stop offset="0.15" stop-color="#e9cd5f"/><stop offset="0.38" stop-color="#d4b855"/><stop offset="0.66" stop-color="#b39645"/><stop offset="0.98" stop-color="#866730"/><stop offset="1" stop-color="#82632e"/></linearGradient><linearGradient id="Dégradé_sans_nom_73-2" x1="92.1" y1="-7.48" x2="67.03" y2="51.58" xlink:href="#Dégradé_sans_nom_73"/></defs><g id="Calque_2" data-name="Calque 2"><g id="Calque_1-2" data-name="Calque 1"><path d="M25.12,78.1,35.76,67.47a18.27,18.27,0,0,1,11.91-5.32l14.92-.75a7,7,0,0,1,3.38.7l9.68,3.08a1.88,1.88,0,0,0,.58,0l16.14.45a6.75,6.75,0,0,1,7.2,6.29c0,.07,0,.15,0,.23h0a7.37,7.37,0,0,1-7,7.71L74.69,83.18" fill="none" stroke="#545454" stroke-miterlimit="10"/><path d="M48.79,103.18l.93-.61a14.8,14.8,0,0,1,6.94-2.45L96,96.72a10.1,10.1,0,0,0,5.77-2.45l18.62-18.13,1.09-1.33,12.39-19.5a4.67,4.67,0,0,0-.37-5.63,7.84,7.84,0,0,0-2-1.6,9.52,9.52,0,0,0-11,2.18l-8.35,8.33-1.49,1.27-7.71,5.77" fill="none" stroke="#545454" stroke-miterlimit="10"/><path d="M16.88,79.35l32.6,33.24a2.84,2.84,0,0,1,0,4l-6.75,6.73a2.88,2.88,0,0,1-3.67.29L1.19,96.27a2.82,2.82,0,0,1-.67-3.93A2.16,2.16,0,0,1,.79,92l11.86-12.6a2.87,2.87,0,0,1,4-.22Z" fill="url(#Dégradé_sans_nom_73)"/><g opacity="0.48"><circle cx="74.47" cy="21.69" r="21.69" opacity="0.17"/><path d="M73.91,31c0,1.55.13,3.09.28,4.62"/><path d="M74,13.06V8.35"/><path d="M77,13.48a8.65,8.65,0,0,0-3.72-.16,3.69,3.69,0,0,0-2,.85,4.45,4.45,0,0,0-1,3,2.87,2.87,0,0,0,.17,1.45,2.24,2.24,0,0,0,.85.85c2.12,1.37,4.94,1.39,6.93,2.95A4.81,4.81,0,0,1,80.14,26a3.88,3.88,0,0,1-2,3.45,5.82,5.82,0,0,1-2.82.53,20.39,20.39,0,0,1-7.48-1.44"/></g><circle cx="79.71" cy="21.69" r="21.69" fill="url(#Dégradé_sans_nom_73-2)"/><path d="M77.09,31c0,1.55.13,3.09.28,4.62A2.21,2.21,0,0,0,78,37a2.08,2.08,0,0,0,2.92,0,2,2,0,0,0,.6-1.46c-.15-1.54-.23-3.08-.28-4.62a2.09,2.09,0,0,0-2.06-2.07A2.12,2.12,0,0,0,77.09,31Z" fill="#fff"/><path d="M81.36,13.06V8.35a2.06,2.06,0,0,0-2-2.07h0a2.1,2.1,0,0,0-2.09,2.07v4.71a2.13,2.13,0,0,0,.6,1.45,2.08,2.08,0,0,0,2.93,0,2.11,2.11,0,0,0,.6-1.44Z" fill="#fff"/><path d="M82.81,11.49c-2.81-.69-6.66-.6-8.38,2.12a7.58,7.58,0,0,0-.94,3.9,4.27,4.27,0,0,0,2.2,3.83c2,1.23,4.59,1.32,6.41,2.55A2.86,2.86,0,0,1,83.35,26a1.78,1.78,0,0,1-.94,1.7c-1.16.54-3,.26-4.2.09a20.43,20.43,0,0,1-4.49-1.22,2.08,2.08,0,0,0-1.11,4,21.88,21.88,0,0,0,8.51,1.51c3-.09,5.78-1.7,6.28-4.89a6.91,6.91,0,0,0-3.62-7.08,19.24,19.24,0,0,0-3.58-1.32,14.43,14.43,0,0,1-1.57-.52,9.07,9.07,0,0,0-1-.59c-.31-.05.13,0,.06.19s0-.24,0-.31a4.47,4.47,0,0,1,0-.85,2.17,2.17,0,0,1,.37-1c.89-.7,2.67-.42,3.67-.17,2.55.64,3.68-3.35,1.1-4Z" fill="#fff"/></g></g></svg>